<svg width="24" height="24" viewBox="0 0 24 24" fill="none" xmlns="http://www.w3.org/2000/svg">
<path d="M15.0017 2.24917L15.0017 2.24919L20.2517 7.49917C20.4507 7.69838 20.5625 7.96843 20.5625 8.25V20.25C20.5625 20.7307 20.3715 21.1917 20.0316 21.5316C19.6917 21.8715 19.2307 22.0625 18.75 22.0625H5.25C4.7693 22.0625 4.30828 21.8715 3.96837 21.5316C3.62846 21.1917 3.4375 20.7307 3.4375 20.25V3.75C3.4375 3.2693 3.62846 2.80828 3.96837 2.46837C4.30828 2.12846 4.7693 1.9375 5.25 1.9375H14.25C14.3896 1.93751 14.5279 1.96504 14.6569 2.01851C14.7859 2.07199 14.903 2.15037 15.0017 2.24917ZM15.0442 5.29956L14.9375 5.19286V5.34375V7.5V7.5625H15H17.1562H17.3071L17.2004 7.45581L15.0442 5.29956ZM5.5625 19.875V19.9375H5.625H18.375H18.4375V19.875V9.75V9.6875H18.375H13.875C13.5932 9.6875 13.323 9.57556 13.1237 9.3763C12.9244 9.17704 12.8125 8.90679 12.8125 8.625V4.125V4.0625H12.75H5.625H5.5625V4.125V19.875Z" fill="#737373" stroke="#737373" stroke-width="0.125"/>
</svg>
